<?xml version="1.0" encoding="UTF-8"?>
<svg id="Layer_1" data-name="Layer 1" xmlns="http://www.w3.org/2000/svg" viewBox="0 0 487 160">
  <defs>
    <style>
      .cls-1 {
        fill: #f0eeee;
      }

      .cls-2 {
        fill: #ec2e30;
      }

      .cls-3, .cls-4, .cls-5 {
        fill: #fff;
      }

      .cls-4 {
        stroke: #ec2e30;
        stroke-miterlimit: 10;
      }

      .cls-5 {
        font-family: Montserrat-Bold, Montserrat;
        font-size: 33.48px;
        font-weight: 700;
        letter-spacing: -.03em;
      }

      .cls-6 {
        fill: #a6a9a9;
      }

      .cls-7 {
        fill: #bbb;
      }
    </style>
  </defs>
  <g>
    <path class="cls-7" d="M148.11,89.1l.06-18.65-7.39-2.02c-.68-3.98-1.71-7.89-3.09-11.68l5.42-5.42-9.28-16.17-7.39,1.94c-2.55-3.07-5.41-5.93-8.54-8.55l1.98-7.41-16.13-9.36-5.45,5.4c-3.71-1.38-7.48-2.42-11.28-3.1l-1.94-7.4-18.65-.14-2.05,7.38c-3.98.66-7.89,1.69-11.69,3.05l-5.4-5.45-16.21,9.21,1.91,7.41c-3.09,2.53-5.96,5.38-8.59,8.5l-7.4-2.02-9.43,16.09,5.37,5.47c-1.44,3.83-2.52,7.72-3.22,11.65l-7.39,1.95-.11,18.65,7.38,2.04c.67,3.98,1.7,7.89,3.07,11.68l-5.44,5.41,9.23,16.2,7.4-1.92c2.54,3.08,5.39,5.95,8.51,8.58l-2.01,7.4,16.1,9.4,5.46-5.38c3.83,1.43,7.73,2.51,11.66,3.21l1.96,7.38,18.65.08,2.03-7.39c3.98-.67,7.89-1.71,11.68-3.08l5.41,5.43,16.19-9.26-1.93-7.4c3.08-2.54,5.94-5.4,8.57-8.53l7.4,2,9.38-16.12-5.39-5.45c1.43-3.83,2.5-7.73,3.19-11.66l7.38-1.97Z"/>
    <circle class="cls-3" cx="75.2" cy="79.55" r="59.33" transform="translate(-34.22 76.47) rotate(-45)"/>
    <circle class="cls-1" cx="75.2" cy="79.55" r="57.21" transform="translate(-23.21 127.49) rotate(-72.59)"/>
    <g>
      <path class="cls-3" d="M134.52,79.54c0-1.71-.07-3.44-.22-5.11-.1-1.1-1.01-1.94-2.11-1.94h-11.42c-.42,0-.82.12-1.17.35l-3.78,2.5-6.4-20.43-.14-7.45c-.01-.66-.33-1.27-.85-1.66l-16.76-12.47c-.33-.25-.73-.39-1.14-.42l-2.39-.14-9.04-8.58c-.41-.39-.93-.58-1.46-.58-.39,0-.79.11-1.13.33-.34-.55-.93-.92-1.59-.99l-7.57-.74c-.07,0-.14,0-.21,0-.57,0-1.12.23-1.52.64l-3.01,3.09-1.67-.48c-.19-.06-.39-.08-.59-.08-.56,0-1.11.22-1.52.64l-3.46,3.54c-.24.25-.42.55-.52.88l-.27.9-25.71,15.05s-.06.03-.08.05l-.75-.04c-.06,0-.11,0-.17,0-.78,0-1.52.24-2.11.66-.84.58-1.39,1.46-1.55,2.46,0,.06-.02.11-.02.17,0,.02,0,.04,0,.06-.09.95.2,1.86.76,2.57l-4.55,7.43-13.72,6.76c-4.18,2.06-6.79,6.2-6.83,10.82-.02,3.63.6,7.77,1.74,11.64,0,0,0,.01,0,.02,0,.01,0,.02,0,.04.25.85.54,1.72.85,2.58,0,0,0,.02.01.03,0,0,0,.02,0,.02.32.86.66,1.72,1.02,2.54,0,.01.01.02.02.03,0,0,0,.01,0,.02.38.85.78,1.69,1.2,2.49,0,0,0,.01.01.02,0,0,0,.02,0,.02.42.79.88,1.59,1.37,2.38,0,0,.01.02.02.03,0,0,0,.01,0,.02.55.88,1.09,1.68,1.66,2.45,0,0,.01.01.02.02,0,.01.01.02.02.03.56.77,1.19,1.54,1.85,2.31,0,0,.01.01.02.02,0,.01.02.02.03.03.66.76,1.31,1.45,1.98,2.1.02.02.05.04.07.07l2.19,1.96c.39.35.9.54,1.41.54.2,0,.4-.03.6-.09l3.35-.98c.43-.12.8-.38,1.07-.72.12.02.24.03.36.03.19,0,.39-.03.59-.08l3.05-.87c.45-.13.83-.4,1.09-.74.21.07.42.1.64.1s.43-.03.64-.1l2.61-.83c.4-.13.73-.36.99-.66.29.15.62.22.95.22.19,0,.38-.03.57-.08l3.27-.92c.92-.26,1.55-1.1,1.55-2.05v-.79c0-.24-.05-.48-.13-.71.08-.22.12-.45.12-.69v-.47c0-.08,0-.15-.01-.23l-.47-4.3c1.32-2.15,4.87-8.96,4.61-19.66l29.32-22.49,14.01,11.39h-8.36c-.05-.07-.11-.14-.17-.2-.62-.7-1.52-1.09-2.45-1.09h-.11c-1.7,0-3.11,1.27-3.28,2.96l-.03.3-3.2,28.31c-.1.91.19,1.81.79,2.49.61.68,1.48,1.07,2.39,1.07h4.33v.36c0,1.17.95,2.12,2.12,2.12h.78c.61,1.74,1.46,3.79,2.62,5.7l-2.47,2.32-3.71-3.23c-.07-.06-.15-.12-.23-.17l-12.44-8.18c-.36-.23-.76-.35-1.16-.35-.54,0-1.09.21-1.5.62l-15.89,15.78c-.19.18-.34.4-.44.64l-4.7,10.53c-.39.88-.14,1.92.61,2.52l.14.11c.16.13.33.26.53.42.03.03.07.05.11.08.04.03.08.06.11.09.57.44,1.32.99,2.18,1.63.05.04.12.09.19.15,2.64,1.88,5.47,3.55,8.39,4.97,8.1,3.94,16.8,5.93,25.88,5.93s17.79-2,25.88-5.93c11.16-5.41,20.54-14.42,26.41-25.35.42-.78.83-1.58,1.2-2.36,0,0,0,0,0,0,1.34-2.77,2.46-5.66,3.33-8.58.01-.04.02-.07.03-.11.16-.53.31-1.06.45-1.6,0-.02.03-.12.04-.15.14-.51.27-1.02.39-1.53,0-.04.02-.08.02-.12,0-.02.01-.05.02-.07.12-.49.23-.99.33-1.49.01-.06.02-.11.03-.17,0-.03.02-.07.02-.1.1-.47.19-.95.27-1.43.01-.06.02-.12.02-.18,0-.04.02-.08.03-.13.08-.46.15-.93.22-1.39,0-.06.02-.12.02-.18.01-.06.02-.12.03-.18.06-.46.13-.92.17-1.38,0-.05,0-.1,0-.15.01-.06.02-.12.03-.18.05-.45.1-.9.13-1.35,0-.07,0-.13,0-.2.01-.06.02-.12.02-.17.04-.44.07-.88.09-1.32,0-.07,0-.13,0-.2.01-.08.02-.16.03-.24.03-.52.04-1.03.06-1.59,0-.22-.02-.44-.08-.65.06-.2.1-.42.1-.64v-.21Z"/>
      <g>
        <path class="cls-2" d="M101.59,58.73c0,.92.49,1.66,1.09,1.66s1.09-.74,1.09-1.66-.49-1.66-1.09-1.66-1.09.74-1.09,1.66Z"/>
        <path class="cls-2" d="M29.23,92.34s-.02-.03-.03-.05l-21.26,5.77c.49.78,1,1.56,1.56,2.32l20.64-6.46-.91-1.57Z"/>
        <path class="cls-2" d="M25.07,83.31c-.08-.22-.15-.44-.23-.66l-21.22,5.75c.24.81.51,1.63.81,2.46l21-6.57c-.12-.33-.24-.65-.37-.98Z"/>
        <path class="cls-2" d="M28.61,91.26l-.56-1.11c-.03-.06-.06-.12-.09-.18l-21.35,5.79c.4.76.83,1.51,1.3,2.26l20.83-6.52c-.04-.08-.09-.16-.13-.24Z"/>
        <path class="cls-2" d="M30.62,94.7l-21.08,5.72c.55.74,1.13,1.46,1.75,2.18l20.36-6.37-1.02-1.52Z"/>
        <path class="cls-2" d="M25.97,85.63c-.07-.16-.13-.33-.2-.5l-21.31,5.78c.29.8.62,1.61.97,2.41l21.02-6.58-.48-1.11Z"/>
        <path class="cls-2" d="M33.34,98.59l-.77-.98-.41-.61-20.84,5.65c.59.67,1.2,1.34,1.86,1.98l2.19,1.96,3.35-.98-.73-2.03,1.61-.5,1.14,1.76,3.05-.87-.42-1.94,1.52-.45,1.21,1.66,2.61-.83-.36-1.89,1.61-.4,1.33,1.75,3.27-.92v-.79s-1.24-1.57-1.24-1.57Z"/>
        <path class="cls-2" d="M26.96,87.91l-.15-.34-21.36,5.79c.35.79.73,1.57,1.14,2.36l20.96-6.56c-.21-.41-.41-.82-.6-1.25Z"/>
        <path class="cls-2" d="M108.37,81.79c-.22-2.02-.54-4.02-.84-6.02l-.51-3c-.09-.51-.25-1.01-.54-1.44-.29-.42-.73-.77-1.24-.83.5.11.9.47,1.14.9.26.42.39.91.46,1.41l.45,3.01c.34,2,.66,4,1.09,5.98Z"/>
        <path class="cls-2" d="M132.4,79.75v-.21c0-1.66-.07-3.31-.21-4.93h-11.42l-6.13,4.06-7.34-23.41-.14-7.76-16.76-12.47-3.16-.19-9.6-9.12-42.55,38.86,39.62-39.53-7.57-.74-3.9,3.99-2.89-.83-3.46,3.54-.51,1.7-25.82,15.11c-.4.24-.84.39-1.3.47-.82.13-2.1.34-2.29.48-.34.23-.59.6-.66,1.05,0,.03,0,.07-.01.1-.08.86.61,1.6,1.47,1.69h.07s-5.95,9.74-5.95,9.74l-1.12.55-13.16,6.48c-3.4,1.68-5.62,5.13-5.64,8.93-.02,2.99.43,6.89,1.65,11.03l14.53-4.55,6.4-2c-.9-2.63-1.67-5.3-2.27-8.01-.71-3.23-1.24-6.5-1.48-9.8.31,3.29.92,6.55,1.69,9.75.79,3.2,1.8,6.35,3,9.41.32.76.6,1.54.94,2.28l1.03,2.24c.34.75.76,1.45,1.13,2.19l.58,1.08c.19.36.42.71.63,1.06l1.29,2.1,1.42,2.01.71,1,.78.95.57.69v-.47l-.55-5.04c-.96-1.31-1.79-2.68-2.57-4.09-.92-1.68-1.73-3.4-2.48-5.16-.72-1.76-1.4-3.54-1.97-5.36-.31-.9-.55-1.82-.82-2.73-.25-.92-.48-1.84-.72-2.76.28.91.54,1.82.84,2.72.32.89.59,1.8.94,2.68.65,1.78,1.4,3.52,2.19,5.24.82,1.71,1.69,3.38,2.67,4.99.76,1.25,1.57,2.47,2.46,3.61.16-.28.36-.62.57-1.04-.14-.2-.28-.39-.41-.59-1.06-1.59-2.03-3.24-2.93-4.92-.87-1.69-1.71-3.4-2.44-5.16-.39-.87-.71-1.76-1.06-2.64-.33-.89-.64-1.79-.96-2.68.36.88.7,1.76,1.07,2.64.39.86.75,1.74,1.17,2.59.8,1.72,1.7,3.38,2.64,5.02,1.02,1.72,2.1,3.39,3.29,4.98,0,0,0,0,0,0,1.51-3.17,3.57-9.14,3.16-17.52,0,0-.76-4.25-5.24-7,0,0,4.99,1.75,6.31,6.18l30.44-23.35,19.94,16.22h-15.78c.07-.69-.47-1.3-1.17-1.3h-.11c-.6,0-1.11.46-1.17,1.06l-.03.32-3.2,28.31c-.07.64.43,1.2,1.07,1.2h24.2v.04h4.86s0-.02,0-.04h0l-.05-.17c-.47-2.04-3.9-30.5-3.9-30.5l-23.27-18.01,26.14,16.99,4.06,31.58h4.43l-3.37-22.33c-.14-.93.3-1.8,1.05-2.28l-1.28-8.09c-1.37,0-2.48-1.43-2.48-3.19,0-.72.19-1.37.5-1.91l-26.27-17.73-1.95,1.49,5.07-6.64c.71-.95,2.08-1.12,3.01-.38l15.55,12.43-16.57-9.94c-1.03-.47-2.49,1.13-3.5,2.09l25.4,17.83c.37-.28.79-.44,1.25-.44,1.37,0,2.48,1.43,2.48,3.19,0,1.01-.38,1.9-.95,2.49l1.61,8.54c.81.24,1.45.9,1.61,1.79l3.94,22.69-5.45,7.76-6.69-3.71v-2.01h-22.95v1.51h2.31c.51,1.58,1.73,4.71,3.85,7.55h0s-5.17,4.86-5.17,4.86l-5.16-4.49-12.44-8.18-15.89,15.78-4.7,10.53c.05.04.11.09.17.14.14.11.28.22.42.33.08.06.17.13.26.2.58.44,1.33,1,2.21,1.65.03.02.05.04.08.06,2.56,1.82,5.28,3.43,8.13,4.82,7.54,3.67,16.01,5.72,24.95,5.72s17.41-2.05,24.95-5.72c10.85-5.26,19.78-13.86,25.47-24.45.4-.75.79-1.5,1.15-2.27,1.28-2.65,2.36-5.41,3.21-8.27l-2.17-.06,2.2-.06c.15-.5.29-1,.42-1.51l-3.07-.09,3.12-.09c.13-.48.26-.97.37-1.46l-3.93-.11,3.98-.11c.11-.47.22-.94.32-1.42l-4.73-.13,4.78-.13c.09-.46.18-.92.26-1.38l-5.49-.15,5.53-.15c.08-.44.15-.89.21-1.34l-6.18-.17,6.23-.17c.06-.43.12-.87.16-1.3l-6.84-.19,6.88-.19c.05-.42.09-.84.13-1.27l-7.45-.2,7.48-.21c.04-.41.07-.82.09-1.23l-8.01-.22,8.03-.22c.03-.52.04-1.03.06-1.55l-10.17-.22-.36,17.07-.38-17.45v-.37s.38,0,.38,0l10.55-.23ZM6.58,70.8c-.62.62-1.14,1.33-1.56,2.1-.43.76-.75,1.58-.98,2.43-.22.85-.37,1.73-.41,2.63-.15-.89-.12-1.82.04-2.72.16-.9.48-1.78.92-2.59.11-.2.22-.4.36-.59.13-.19.25-.39.4-.56.31-.34.6-.7.96-.99.33-.32.72-.56,1.1-.81.19-.13.4-.22.6-.32.2-.1.41-.2.61-.29-.73.53-1.45,1.05-2.05,1.7ZM51.47,40.37l-12.21,12.51-3.51-4.95,15.72-7.56ZM26.08,62.17l-.74-.15,8.27-11.12.36.46-7.89,10.81ZM29.54,62.84l-2.99-.58,7.88-10.31.7.87-.25.37c-.14.19-.11.46.06.62l.94.89.36-.48.77.98-7.47,7.65ZM65.28,50.73l-16.24,12.6,10.27-9.74c.58-.54.67-1.42.2-2.06-.51-.69-1.49-.84-2.18-.32l-19.75,14.82,23.88-19.96c1.31-1.13,3.3-.92,4.35.45,1.01,1.31.76,3.2-.54,4.21ZM89.05,84.86h-11.27l11.25.55-.2,7.42h-17.34l.93-8.81h16.64l-.02.83ZM89.12,81.7h-16.53l1.6-15.4h13.33l-.23,13.55,1.35-13.55h1.13l-.65,15.4ZM52.07,126.69l-8.1-4.8,2.5-8.34,13.7-13.6-6.12,12.88-1.98,13.86ZM70.35,107.5l-7.51-3.67-3.71,4.34,3.01-6.8,8.89,5.48,4.47,4.66-5.13-4.01ZM90.96,113.72l-11.99-.86,6.94-6.01,8.39,3.62,3.2,12.15-6.54-8.89Z"/>
      </g>
    </g>
  </g>
  <rect class="cls-6" x="4.55" y="120.23" width="143.94" height="35.93" rx="1.94" ry="1.94"/>
  <text class="cls-5" transform="translate(13.63 150.31)"><tspan x="0" y="0">FUJIAN</tspan></text>
  <g>
    <path class="cls-2" d="M232.26,26.91v11.09h-26.23v12.23h24.94v11.09h-24.94v22.18h-12.63V26.91h38.86Z"/>
    <path class="cls-2" d="M255.09,68.89c2.1,2.62,4.94,3.93,8.5,3.93s6.38-1.31,8.46-3.93c2.08-2.62,3.12-6.19,3.12-10.73v-31.25h12.63v31.66c0,8.21-2.27,14.51-6.8,18.91-4.53,4.4-10.34,6.6-17.41,6.6s-12.89-2.21-17.45-6.64c-4.56-4.43-6.84-10.71-6.84-18.86v-31.66h12.63v31.25c0,4.53,1.05,8.11,3.16,10.73Z"/>
    <path class="cls-2" d="M299.13,37.75v-10.85h29.47v36.92c0,6.75-1.74,11.79-5.22,15.14-3.48,3.35-7.95,5.02-13.4,5.02-6.8,0-12.74-2.62-17.81-7.85l6.56-9.07c3.4,3.67,6.96,5.51,10.69,5.51,1.78,0,3.3-.69,4.57-2.06,1.27-1.38,1.9-3.44,1.9-6.19v-26.56h-16.76Z"/>
    <path class="cls-2" d="M339.21,26.91h12.63v56.59h-12.63V26.91Z"/>
    <path class="cls-2" d="M403.25,83.5l-5.26-12.23h-23.72l-5.26,12.23h-13.44l24.45-56.59h12.23l24.45,56.59h-13.44ZM386.17,43.75l-7.12,16.44h14.17l-7.04-16.44Z"/>
    <path class="cls-2" d="M460.01,26.91h12.63v56.59h-12.63l-26.96-35.46v35.46h-12.63V26.91h11.82l27.77,36.43V26.91Z"/>
  </g>
  <g>
    <path class="cls-3" d="M197.75,109.04c.69,0,1.29-.12,1.79-.35.5-.23,1.02-.6,1.56-1.11l1.29,1.33c-1.26,1.39-2.79,2.09-4.58,2.09s-3.29-.58-4.47-1.73c-1.18-1.16-1.78-2.62-1.78-4.39s.6-3.24,1.81-4.42,2.73-1.77,4.57-1.77,3.38.68,4.62,2.04l-1.27,1.39c-.57-.54-1.1-.92-1.61-1.14s-1.1-.32-1.78-.32c-1.2,0-2.21.39-3.03,1.16-.82.78-1.22,1.77-1.22,2.98s.4,2.22,1.22,3.03c.81.81,1.77,1.22,2.88,1.22Z"/>
    <path class="cls-3" d="M216.23,109.21c-1.2,1.17-2.69,1.76-4.46,1.76s-3.25-.59-4.45-1.76c-1.2-1.17-1.8-2.63-1.8-4.39s.6-3.21,1.8-4.39c1.2-1.17,2.69-1.76,4.45-1.76s3.25.59,4.46,1.76c1.2,1.17,1.8,2.64,1.8,4.39s-.6,3.21-1.8,4.39ZM214.76,101.78c-.81-.84-1.81-1.26-2.98-1.26s-2.17.42-2.98,1.26c-.81.84-1.22,1.86-1.22,3.05s.41,2.21,1.22,3.05c.81.84,1.8,1.26,2.98,1.26s2.17-.42,2.98-1.26c.81-.84,1.21-1.86,1.21-3.05s-.41-2.21-1.21-3.05Z"/>
    <path class="cls-3" d="M231.17,98.97h2.01v11.88h-2.18l-6.73-8.67v8.67h-2.01v-11.88h2.01l6.9,8.87v-8.87Z"/>
    <path class="cls-3" d="M243.6,109.04c.69,0,1.29-.12,1.79-.35.5-.23,1.02-.6,1.56-1.11l1.29,1.33c-1.26,1.39-2.79,2.09-4.58,2.09s-3.29-.58-4.47-1.73c-1.18-1.16-1.78-2.62-1.78-4.39s.6-3.24,1.81-4.42,2.73-1.77,4.57-1.77,3.38.68,4.62,2.04l-1.28,1.39c-.57-.54-1.1-.92-1.61-1.14-.5-.22-1.1-.32-1.78-.32-1.2,0-2.21.39-3.03,1.16-.82.78-1.22,1.77-1.22,2.98s.41,2.22,1.22,3.03c.81.81,1.77,1.22,2.88,1.22Z"/>
    <path class="cls-3" d="M261.87,102.83c0,1.96-.86,3.2-2.57,3.71l3.11,4.32h-2.55l-2.84-4h-2.63v4h-2.01v-11.88h4.42c1.81,0,3.11.31,3.89.92.78.61,1.17,1.59,1.17,2.94ZM259.2,104.51c.41-.35.61-.92.61-1.69s-.21-1.31-.63-1.6-1.17-.43-2.24-.43h-2.55v4.25h2.5c1.13,0,1.9-.18,2.31-.53Z"/>
    <path class="cls-3" d="M274.81,98.97v1.89h-6.34v3.15h5.7v1.79h-5.7v3.18h6.54v1.89h-8.55v-11.88h8.35Z"/>
    <path class="cls-3" d="M283.77,100.81v10.05h-2.01v-10.05h-3.6v-1.84h9.21v1.84h-3.6Z"/>
    <path class="cls-3" d="M299.6,98.97v1.89h-6.34v3.15h5.7v1.79h-5.7v3.18h6.54v1.89h-8.55v-11.88h8.35Z"/>
    <path class="cls-3" d="M314.13,107.52l2.65-8.55h1.8l2.65,8.55,2.99-8.55h2.16l-4.15,11.88h-1.99l-2.5-8.14h-.14l-2.5,8.14h-1.99l-4.15-11.88h2.16l2.99,8.55Z"/>
    <path class="cls-3" d="M339.77,109.21c-1.2,1.17-2.69,1.76-4.45,1.76s-3.25-.59-4.46-1.76c-1.2-1.17-1.8-2.63-1.8-4.39s.6-3.21,1.8-4.39c1.2-1.17,2.69-1.76,4.46-1.76s3.25.59,4.45,1.76c1.2,1.17,1.8,2.64,1.8,4.39s-.6,3.21-1.8,4.39ZM338.29,101.78c-.81-.84-1.8-1.26-2.98-1.26s-2.17.42-2.98,1.26c-.81.84-1.21,1.86-1.21,3.05s.4,2.21,1.21,3.05c.81.84,1.8,1.26,2.98,1.26s2.17-.42,2.98-1.26c.81-.84,1.22-1.86,1.22-3.05s-.41-2.21-1.22-3.05Z"/>
    <path class="cls-3" d="M355.29,102.83c0,1.96-.86,3.2-2.57,3.71l3.11,4.32h-2.55l-2.84-4h-2.63v4h-2.01v-11.88h4.42c1.81,0,3.11.31,3.89.92.78.61,1.17,1.59,1.17,2.94ZM352.62,104.51c.41-.35.61-.92.61-1.69s-.21-1.31-.63-1.6c-.42-.29-1.17-.43-2.24-.43h-2.55v4.25h2.5c1.13,0,1.9-.18,2.31-.53Z"/>
    <path class="cls-3" d="M359.88,98.97h2.01v5.8l5.44-5.8h2.55l-4.78,5.2,4.84,6.68h-2.38l-3.94-5.2-1.73,1.87v3.33h-2.01v-11.88Z"/>
    <path class="cls-3" d="M376.94,100.54c-.58,0-1.06.12-1.44.36-.38.24-.56.6-.56,1.08s.19.85.56,1.1c.37.25,1.17.53,2.39.82,1.22.29,2.14.71,2.75,1.24.62.53.93,1.32.93,2.35s-.39,1.88-1.17,2.52-1.81.97-3.08.97c-1.86,0-3.51-.64-4.95-1.92l1.26-1.51c1.2,1.04,2.45,1.56,3.74,1.56.65,0,1.16-.14,1.54-.42.38-.28.57-.65.57-1.1s-.18-.82-.54-1.07c-.36-.25-.97-.49-1.84-.7-.87-.21-1.54-.4-1.99-.58-.45-.18-.86-.4-1.21-.69-.7-.53-1.05-1.35-1.05-2.45s.4-1.95,1.2-2.54c.8-.6,1.79-.89,2.97-.89.76,0,1.51.12,2.26.37s1.39.6,1.94,1.05l-1.07,1.51c-.35-.32-.83-.58-1.43-.78-.6-.2-1.19-.31-1.78-.31Z"/>
    <path class="cls-3" d="M392.11,110.86v-11.88h2.01v9.98h5.42v1.9h-7.43Z"/>
    <path class="cls-3" d="M403.43,98.97h2.01v11.88h-2.01v-11.88Z"/>
    <path class="cls-3" d="M412.44,110.86h-2.01v-11.88h3.13l3.59,7.46,3.59-7.46h3.11v11.88h-2.01v-9.28l-4.15,8.25h-1.12l-4.13-8.25v9.28Z"/>
    <path class="cls-3" d="M428.84,98.97h2.01v11.88h-2.01v-11.88Z"/>
    <path class="cls-3" d="M440.34,100.81v10.05h-2.01v-10.05h-3.6v-1.84h9.21v1.84h-3.6Z"/>
    <path class="cls-3" d="M456.16,98.97v1.89h-6.34v3.15h5.7v1.79h-5.7v3.18h6.54v1.89h-8.55v-11.88h8.35Z"/>
    <path class="cls-3" d="M469.63,100.53c1.14,1.04,1.72,2.48,1.72,4.33s-.55,3.31-1.67,4.39c-1.11,1.08-2.81,1.62-5.1,1.62h-3.94v-11.88h4.08c2.13,0,3.77.52,4.91,1.56ZM469.32,104.91c0-2.72-1.56-4.08-4.67-4.08h-2.01v8.14h2.23c1.44,0,2.54-.34,3.31-1.03.77-.69,1.15-1.7,1.15-3.03Z"/>
  </g>
  <g>
    <path class="cls-2" d="M254.25,127.47l1.12.66c-.08.1-.18.2-.33.23-.79,2.06-1.96,4.06-3.28,5.87,1.04.79,3.1,2.49,3.68,2.95l-.99,1.52c-.58-.69-1.91-1.91-2.95-2.85v10.47h-1.68v-9.76c-.99,1.07-2.03,2.03-3.07,2.79-.18-.46-.64-1.19-.92-1.5,2.74-1.91,5.64-5.26,7.22-8.74h-6.81v-1.58h3.58v-4.83l2.16.13c-.03.18-.15.3-.48.36v4.34h2.44l.3-.08ZM255.11,123.61h14.38v1.5h-14.38v-1.5ZM255.67,146.32v-11.28h13.06v11.18h-1.68v-1.12h-9.76v1.22h-1.63ZM257.17,126.96h10.11v6.22h-10.11v-6.22ZM261.31,136.54h-4.01v2.79h4.01v-2.79ZM257.3,143.63h4.01v-2.85h-4.01v2.85ZM265.68,131.79v-3.43h-6.96v3.43h6.96ZM267.05,139.33v-2.79h-4.14v2.79h4.14ZM262.91,143.63h4.14v-2.85h-4.14v2.85Z"/>
    <path class="cls-2" d="M278.1,131.69l.99.33c-.03.13-.1.23-.18.3-.41,3.43-1.12,6.28-2.16,8.56,2.54,2.52,6.15,3.07,10.54,3.07.96,0,6.61,0,7.85-.03-.28.41-.58,1.19-.69,1.68h-7.19c-4.8,0-8.54-.66-11.28-3.23-.96,1.68-2.13,3-3.48,3.96-.25-.36-.91-.97-1.27-1.19,1.42-.97,2.64-2.31,3.61-4.06-.99-1.32-1.8-2.97-2.44-5.08l1.35-.56c.48,1.63,1.09,2.97,1.85,4.06.71-1.75,1.25-3.81,1.55-6.22h-3.25l-.53,1.04-1.58-.43c1.32-2.44,2.9-5.67,3.96-7.95h-4.34v-1.55h5.33l.33-.08,1.09.46c-.05.1-.13.23-.2.33-.79,1.63-2.03,4.19-3.28,6.63h3.07l.33-.05ZM285.62,131.79v-2.03h-7.21v-1.42h7.21v-2.01h-5.21v-1.4h5.21v-2.29l2.16.15c-.03.18-.15.3-.48.33v1.8h5.59v3.4h2.06v1.42h-2.06v3.43h-5.59v2.11h6.02v1.37h-6.02v2.11h7.16v1.42h-7.16v2.82h-1.68v-2.82h-6.88v-1.42h6.88v-2.11h-5.74v-1.37h5.74v-2.11h-5.39v-1.4h5.39ZM287.29,126.33v2.01h3.91v-2.01h-3.91ZM291.21,131.79v-2.03h-3.91v2.03h3.91Z"/>
    <path class="cls-2" d="M297.68,129.86c1.58.66,3.51,1.75,4.47,2.62l-.99,1.4c-.91-.86-2.82-2.03-4.42-2.74l.94-1.27ZM297.42,144.92c1.22-2.01,2.95-5.41,4.22-8.33l1.32,1.04c-1.14,2.69-2.69,5.87-3.81,7.83.1.13.13.25.13.36s-.03.2-.08.28l-1.78-1.17ZM299.03,122.95c1.55.74,3.48,1.91,4.39,2.82-.56.74-.79,1.07-1.02,1.37-.92-.91-2.79-2.16-4.37-2.95l.99-1.24ZM306.67,139.31v4.19c1.55-.28,3.23-.61,4.9-.91l.1,1.47c-3,.66-6.12,1.3-8.08,1.68-.03.2-.15.33-.33.38l-.71-1.88c.71-.13,1.55-.28,2.46-.43v-9.35l2.13.13c-.03.18-.15.31-.48.36v2.82h4.85v1.55h-4.85ZM318.54,123.81v9.4h-13.75v-9.4h13.75ZM316.86,127.8v-2.54h-10.44v2.54h10.44ZM316.86,131.76v-2.59h-10.44v2.59h10.44ZM314.01,143.48c0,.74.13.86,1.02.86h2.97c.79,0,.92-.43.99-3.12.36.31,1.04.53,1.5.66-.18,3.18-.63,4.01-2.34,4.01h-3.33c-1.98,0-2.46-.51-2.46-2.41v-9.02l2.16.13c-.03.18-.18.31-.51.36v3.99c1.78-.84,3.61-1.83,4.7-2.72l1.4,1.4c-.05.08-.15.1-.28.1-.05,0-.13,0-.2-.03-1.35.91-3.56,1.96-5.62,2.77v3.02Z"/>
    <path class="cls-2" d="M322.16,142.56c1.12-1.96,2.69-5.26,3.84-8.1l1.4.94c-1.07,2.64-2.49,5.69-3.48,7.57.1.15.15.28.15.38s-.03.18-.08.25l-1.83-1.04ZM323.36,124.37c1.57.79,3.48,2.03,4.45,2.95l-.99,1.35c-.92-.94-2.82-2.26-4.4-3.1l.94-1.19ZM332.55,139.28c-.05.25-.08.53-.15.79,1.14.97,2.39,2.21,3,3.05l-1.07,1.07c-.48-.71-1.4-1.75-2.34-2.64-.61,1.68-1.7,3.4-3.73,4.83-.23-.33-.74-.81-1.09-1.07,2.59-1.7,3.53-3.99,3.84-6.02h-3.43v-1.42h3.58c.03-.36.03-.71.03-1.02v-2.29h-1.37c-.36,1.07-.79,2.06-1.27,2.79-.3-.23-.81-.58-1.19-.79.89-1.32,1.52-3.61,1.96-5.79l1.85.51c-.08.2-.28.25-.51.23-.1.53-.23,1.07-.38,1.6h5.21v1.45h-2.77v2.31c0,.3,0,.64-.03.99h3.28v1.42h-3.4ZM333.9,129.27c.63,0,.79-.23.84-1.88.33.25.97.46,1.4.56-.15,2.19-.61,2.74-2.06,2.74h-3.28c-1.88,0-2.36-.43-2.36-2.08v-5.89l2.06.13c-.03.18-.15.3-.51.33v2.52c1.6-.53,3.33-1.19,4.39-1.83l1.07,1.32c-.08.05-.15.08-.25.08-.05,0-.1,0-.18-.03-1.19.56-3.25,1.24-5.03,1.75v1.63c0,.56.13.66.99.66h2.92ZM341.57,138.85v5.41c.64.2,1.32.28,2.01.28.38,0,1.93,0,2.46-.03-.23.38-.43,1.09-.48,1.5h-2.06c-2.52,0-4.62-.76-5.95-4.34-.41,1.85-1.12,3.46-2.26,4.62-.23-.33-.69-.79-1.02-1.02,2.08-2.08,2.52-5.87,2.64-10.19l1.78.15c-.03.18-.18.3-.46.33-.05,1.22-.13,2.44-.25,3.61.46,2.11,1.19,3.4,2.06,4.19v-10.49h-4.01v-1.5h8.94l.76.03c0,.33-.53,2.85-1.07,4.19l-1.22-.33c.2-.64.41-1.52.61-2.39h-2.49v4.55h3.96v1.42h-3.96ZM342.33,131.25c-1.07-1.12-3.33-2.69-5.21-3.71l.96-1.04c.74.38,1.55.86,2.31,1.35.89-.81,1.8-1.88,2.52-2.87h-6.63v-1.47h7.85l.25-.08,1.27.79c-.08.13-.23.2-.38.2-.89,1.37-2.31,3.02-3.66,4.27.69.48,1.3.97,1.73,1.4l-1.02,1.17Z"/>
    <path class="cls-2" d="M360.21,143.48h10.7v1.7h-23.04v-1.7h10.57v-10.72h-8.92v-1.7h8.92v-8.26l2.31.15c-.03.18-.18.3-.53.36v7.75h9.04v1.7h-9.04v10.72Z"/>
    <path class="cls-2" d="M385.64,142.59h10.59v1.73h-22.89v-1.73h10.49v-15.22h-9.25v-1.7h20.48v1.7h-9.42v15.22Z"/>
    <path class="cls-2" d="M404.38,133.44c.84.79,3.12,3.2,3.63,3.86l-1.02,1.32c-.46-.76-1.68-2.34-2.62-3.51v11.2h-1.68v-11.94c-.96,2.79-2.26,5.64-3.53,7.32-.2-.46-.63-1.14-.91-1.52,1.47-1.88,3.12-5.36,4.04-8.38h-3.79v-1.63h4.19v-4.29c-1.24.36-2.54.69-3.76.97-.08-.36-.33-.91-.56-1.27,2.97-.71,6.35-1.78,8.16-2.87l1.55,1.27c-.08.08-.15.1-.28.1-.08,0-.15,0-.23-.03-.86.46-1.96.89-3.2,1.3v4.83h3.53v1.63h-3.53v1.65ZM415.46,144.11h6.53v1.52h-14.76v-1.52h6.53v-3.61h-5.08v-1.5h5.08v-3.23h-5.67v-1.52h13.26v1.52h-5.89v3.23h5.29v1.5h-5.29v3.61ZM420.39,123.94v8.13h-11.38v-8.13h11.38ZM418.73,130.57v-5.11h-8.13v5.11h8.13Z"/>
  </g>
  <line class="cls-4" x1="187.58" y1="135.51" x2="240.38" y2="135.51"/>
  <line class="cls-4" x1="426.19" y1="135.51" x2="478.99" y2="135.51"/>
</svg>